<?xml version="1.0" encoding="utf-8" standalone="no"?>
<!DOCTYPE svg PUBLIC "-//W3C//DTD SVG 1.1//EN"
  "http://www.w3.org/Graphics/SVG/1.1/DTD/svg11.dtd">
<svg xmlns:xlink="http://www.w3.org/1999/xlink" width="576pt" height="432pt" viewBox="0 0 576 432" xmlns="http://www.w3.org/2000/svg" version="1.1">
 <metadata>
  <rdf:RDF xmlns:dc="http://purl.org/dc/elements/1.1/" xmlns:cc="http://creativecommons.org/ns#" xmlns:rdf="http://www.w3.org/1999/02/22-rdf-syntax-ns#">
   <cc:Work>
    <dc:type rdf:resource="http://purl.org/dc/dcmitype/StillImage"/>
    <dc:date>2026-03-05T14:02:05.907048</dc:date>
    <dc:format>image/svg+xml</dc:format>
    <dc:creator>
     <cc:Agent>
      <dc:title>Matplotlib v3.10.8, https://matplotlib.org/</dc:title>
     </cc:Agent>
    </dc:creator>
   </cc:Work>
  </rdf:RDF>
 </metadata>
 <defs>
  <style type="text/css">*{stroke-linejoin: round; stroke-linecap: butt}</style>
 </defs>
 <g id="figure_1">
  <g id="patch_1">
   <path d="M 0 432 
L 576 432 
L 576 0 
L 0 0 
z
" style="fill: #ffffff"/>
  </g>
  <g id="axes_1">
   <g id="patch_2">
    <path d="M 128.88 384.48 
L 461.52 384.48 
L 461.52 51.84 
L 128.88 51.84 
z
" style="fill: #ffffff"/>
   </g>
   <g id="matplotlib.axis_1">
    <g id="xtick_1">
     <g id="line2d_1">
      <path d="M 128.88 384.48 
L 128.88 51.84 
" clip-path="url(#ped9fbcf3a1)" style="fill: none; stroke: #b0b0b0; stroke-width: 0.8; stroke-linecap: square"/>
     </g>
     <g id="line2d_2">
      <defs>
       <path id="md08899ba00" d="M 0 0 
L 0 3.5 
" style="stroke: #000000; stroke-width: 0.8"/>
      </defs>
      <g>
       <use xlink:href="#md08899ba00" x="128.88" y="384.48" style="stroke: #000000; stroke-width: 0.8"/>
      </g>
     </g>
     <g id="text_1">
      <!-- 0.0 -->
      <g transform="translate(111.386562 408.196563) scale(0.22 -0.22)">
       <defs>
        <path id="DejaVuSerif-30" d="M 2034 219 
Q 2513 219 2750 744 
Q 2988 1269 2988 2328 
Q 2988 3391 2750 3916 
Q 2513 4441 2034 4441 
Q 1556 4441 1318 3916 
Q 1081 3391 1081 2328 
Q 1081 1269 1318 744 
Q 1556 219 2034 219 
z
M 2034 -91 
Q 1275 -91 848 546 
Q 422 1184 422 2328 
Q 422 3475 848 4112 
Q 1275 4750 2034 4750 
Q 2797 4750 3222 4112 
Q 3647 3475 3647 2328 
Q 3647 1184 3222 546 
Q 2797 -91 2034 -91 
z
" transform="scale(0.015625)"/>
        <path id="DejaVuSerif-2e" d="M 603 325 
Q 603 500 722 622 
Q 841 744 1019 744 
Q 1191 744 1312 622 
Q 1434 500 1434 325 
Q 1434 153 1312 31 
Q 1191 -91 1019 -91 
Q 841 -91 722 29 
Q 603 150 603 325 
z
" transform="scale(0.015625)"/>
       </defs>
       <use xlink:href="#DejaVuSerif-30"/>
       <use xlink:href="#DejaVuSerif-2e" transform="translate(63.623047 0)"/>
       <use xlink:href="#DejaVuSerif-30" transform="translate(95.410156 0)"/>
      </g>
     </g>
    </g>
    <g id="xtick_2">
     <g id="line2d_3">
      <path d="M 195.408 384.48 
L 195.408 51.84 
" clip-path="url(#ped9fbcf3a1)" style="fill: none; stroke: #b0b0b0; stroke-width: 0.8; stroke-linecap: square"/>
     </g>
     <g id="line2d_4">
      <g>
       <use xlink:href="#md08899ba00" x="195.408" y="384.48" style="stroke: #000000; stroke-width: 0.8"/>
      </g>
     </g>
     <g id="text_2">
      <!-- 0.2 -->
      <g transform="translate(177.914563 408.196563) scale(0.22 -0.22)">
       <defs>
        <path id="DejaVuSerif-32" d="M 819 3553 
L 469 3553 
L 469 4384 
Q 803 4563 1142 4656 
Q 1481 4750 1806 4750 
Q 2534 4750 2956 4397 
Q 3378 4044 3378 3438 
Q 3378 2753 2422 1800 
Q 2347 1728 2309 1691 
L 1131 513 
L 3078 513 
L 3078 1088 
L 3444 1088 
L 3444 0 
L 434 0 
L 434 341 
L 1850 1753 
Q 2319 2222 2519 2614 
Q 2719 3006 2719 3438 
Q 2719 3909 2473 4175 
Q 2228 4441 1797 4441 
Q 1350 4441 1106 4219 
Q 863 3997 819 3553 
z
" transform="scale(0.015625)"/>
       </defs>
       <use xlink:href="#DejaVuSerif-30"/>
       <use xlink:href="#DejaVuSerif-2e" transform="translate(63.623047 0)"/>
       <use xlink:href="#DejaVuSerif-32" transform="translate(95.410156 0)"/>
      </g>
     </g>
    </g>
    <g id="xtick_3">
     <g id="line2d_5">
      <path d="M 261.936 384.48 
L 261.936 51.84 
" clip-path="url(#ped9fbcf3a1)" style="fill: none; stroke: #b0b0b0; stroke-width: 0.8; stroke-linecap: square"/>
     </g>
     <g id="line2d_6">
      <g>
       <use xlink:href="#md08899ba00" x="261.936" y="384.48" style="stroke: #000000; stroke-width: 0.8"/>
      </g>
     </g>
     <g id="text_3">
      <!-- 0.4 -->
      <g transform="translate(244.442563 408.196563) scale(0.22 -0.22)">
       <defs>
        <path id="DejaVuSerif-34" d="M 2234 1581 
L 2234 4063 
L 641 1581 
L 2234 1581 
z
M 3609 0 
L 1484 0 
L 1484 331 
L 2234 331 
L 2234 1247 
L 197 1247 
L 197 1588 
L 2241 4750 
L 2859 4750 
L 2859 1581 
L 3750 1581 
L 3750 1247 
L 2859 1247 
L 2859 331 
L 3609 331 
L 3609 0 
z
" transform="scale(0.015625)"/>
       </defs>
       <use xlink:href="#DejaVuSerif-30"/>
       <use xlink:href="#DejaVuSerif-2e" transform="translate(63.623047 0)"/>
       <use xlink:href="#DejaVuSerif-34" transform="translate(95.410156 0)"/>
      </g>
     </g>
    </g>
    <g id="xtick_4">
     <g id="line2d_7">
      <path d="M 328.464 384.48 
L 328.464 51.84 
" clip-path="url(#ped9fbcf3a1)" style="fill: none; stroke: #b0b0b0; stroke-width: 0.8; stroke-linecap: square"/>
     </g>
     <g id="line2d_8">
      <g>
       <use xlink:href="#md08899ba00" x="328.464" y="384.48" style="stroke: #000000; stroke-width: 0.8"/>
      </g>
     </g>
     <g id="text_4">
      <!-- 0.6 -->
      <g transform="translate(310.970563 408.196563) scale(0.22 -0.22)">
       <defs>
        <path id="DejaVuSerif-36" d="M 2094 219 
Q 2534 219 2771 542 
Q 3009 866 3009 1472 
Q 3009 2078 2771 2401 
Q 2534 2725 2094 2725 
Q 1647 2725 1412 2412 
Q 1178 2100 1178 1509 
Q 1178 888 1415 553 
Q 1653 219 2094 219 
z
M 1075 2569 
Q 1288 2803 1556 2918 
Q 1825 3034 2163 3034 
Q 2859 3034 3264 2615 
Q 3669 2197 3669 1472 
Q 3669 763 3233 336 
Q 2797 -91 2069 -91 
Q 1278 -91 853 498 
Q 428 1088 428 2181 
Q 428 3406 931 4078 
Q 1434 4750 2350 4750 
Q 2597 4750 2869 4703 
Q 3141 4656 3425 4563 
L 3425 3794 
L 3072 3794 
Q 3034 4109 2831 4275 
Q 2628 4441 2284 4441 
Q 1678 4441 1381 3981 
Q 1084 3522 1075 2569 
z
" transform="scale(0.015625)"/>
       </defs>
       <use xlink:href="#DejaVuSerif-30"/>
       <use xlink:href="#DejaVuSerif-2e" transform="translate(63.623047 0)"/>
       <use xlink:href="#DejaVuSerif-36" transform="translate(95.410156 0)"/>
      </g>
     </g>
    </g>
    <g id="xtick_5">
     <g id="line2d_9">
      <path d="M 394.992 384.48 
L 394.992 51.84 
" clip-path="url(#ped9fbcf3a1)" style="fill: none; stroke: #b0b0b0; stroke-width: 0.8; stroke-linecap: square"/>
     </g>
     <g id="line2d_10">
      <g>
       <use xlink:href="#md08899ba00" x="394.992" y="384.48" style="stroke: #000000; stroke-width: 0.8"/>
      </g>
     </g>
     <g id="text_5">
      <!-- 0.8 -->
      <g transform="translate(377.498563 408.196563) scale(0.22 -0.22)">
       <defs>
        <path id="DejaVuSerif-38" d="M 2981 1275 
Q 2981 1775 2732 2051 
Q 2484 2328 2034 2328 
Q 1584 2328 1336 2051 
Q 1088 1775 1088 1275 
Q 1088 772 1336 495 
Q 1584 219 2034 219 
Q 2484 219 2732 495 
Q 2981 772 2981 1275 
z
M 2853 3541 
Q 2853 3966 2637 4203 
Q 2422 4441 2034 4441 
Q 1650 4441 1433 4203 
Q 1216 3966 1216 3541 
Q 1216 3113 1433 2875 
Q 1650 2638 2034 2638 
Q 2422 2638 2637 2875 
Q 2853 3113 2853 3541 
z
M 2516 2484 
Q 3047 2413 3344 2092 
Q 3641 1772 3641 1275 
Q 3641 619 3225 264 
Q 2809 -91 2034 -91 
Q 1263 -91 845 264 
Q 428 619 428 1275 
Q 428 1772 725 2092 
Q 1022 2413 1556 2484 
Q 1084 2569 832 2842 
Q 581 3116 581 3541 
Q 581 4103 968 4426 
Q 1356 4750 2034 4750 
Q 2713 4750 3100 4426 
Q 3488 4103 3488 3541 
Q 3488 3116 3236 2842 
Q 2984 2569 2516 2484 
z
" transform="scale(0.015625)"/>
       </defs>
       <use xlink:href="#DejaVuSerif-30"/>
       <use xlink:href="#DejaVuSerif-2e" transform="translate(63.623047 0)"/>
       <use xlink:href="#DejaVuSerif-38" transform="translate(95.410156 0)"/>
      </g>
     </g>
    </g>
    <g id="xtick_6">
     <g id="line2d_11">
      <path d="M 461.52 384.48 
L 461.52 51.84 
" clip-path="url(#ped9fbcf3a1)" style="fill: none; stroke: #b0b0b0; stroke-width: 0.8; stroke-linecap: square"/>
     </g>
     <g id="line2d_12">
      <g>
       <use xlink:href="#md08899ba00" x="461.52" y="384.48" style="stroke: #000000; stroke-width: 0.8"/>
      </g>
     </g>
     <g id="text_6">
      <!-- 1.0 -->
      <g transform="translate(444.026562 408.196563) scale(0.22 -0.22)">
       <defs>
        <path id="DejaVuSerif-31" d="M 909 0 
L 909 331 
L 1722 331 
L 1722 4213 
L 781 3603 
L 781 4013 
L 1919 4750 
L 2350 4750 
L 2350 331 
L 3163 331 
L 3163 0 
L 909 0 
z
" transform="scale(0.015625)"/>
       </defs>
       <use xlink:href="#DejaVuSerif-31"/>
       <use xlink:href="#DejaVuSerif-2e" transform="translate(63.623047 0)"/>
       <use xlink:href="#DejaVuSerif-30" transform="translate(95.410156 0)"/>
      </g>
     </g>
    </g>
    <g id="text_7">
     <!-- x -->
     <g transform="translate(288.997031 433.488438) scale(0.22 -0.22)">
      <defs>
       <path id="DejaVuSerif-78" d="M 1863 2028 
L 2559 2988 
L 2113 2988 
L 2113 3322 
L 3391 3322 
L 3391 2988 
L 2950 2988 
L 2059 1759 
L 3097 331 
L 3531 331 
L 3531 0 
L 1997 0 
L 1997 331 
L 2419 331 
L 1697 1325 
L 972 331 
L 1403 331 
L 1403 0 
L 141 0 
L 141 331 
L 581 331 
L 1497 1594 
L 488 2988 
L 78 2988 
L 78 3322 
L 1563 3322 
L 1563 2988 
L 1166 2988 
L 1863 2028 
z
" transform="scale(0.015625)"/>
      </defs>
      <use xlink:href="#DejaVuSerif-78"/>
     </g>
    </g>
   </g>
   <g id="matplotlib.axis_2">
    <g id="ytick_1">
     <g id="line2d_13">
      <path d="M 128.88 384.48 
L 461.52 384.48 
" clip-path="url(#ped9fbcf3a1)" style="fill: none; stroke: #b0b0b0; stroke-width: 0.8; stroke-linecap: square"/>
     </g>
     <g id="line2d_14">
      <defs>
       <path id="m39098706e5" d="M 0 0 
L -3.5 0 
" style="stroke: #000000; stroke-width: 0.8"/>
      </defs>
      <g>
       <use xlink:href="#m39098706e5" x="128.88" y="384.48" style="stroke: #000000; stroke-width: 0.8"/>
      </g>
     </g>
     <g id="text_8">
      <!-- 0.0 -->
      <g transform="translate(86.893125 392.838281) scale(0.22 -0.22)">
       <use xlink:href="#DejaVuSerif-30"/>
       <use xlink:href="#DejaVuSerif-2e" transform="translate(63.623047 0)"/>
       <use xlink:href="#DejaVuSerif-30" transform="translate(95.410156 0)"/>
      </g>
     </g>
    </g>
    <g id="ytick_2">
     <g id="line2d_15">
      <path d="M 128.88 317.952 
L 461.52 317.952 
" clip-path="url(#ped9fbcf3a1)" style="fill: none; stroke: #b0b0b0; stroke-width: 0.8; stroke-linecap: square"/>
     </g>
     <g id="line2d_16">
      <g>
       <use xlink:href="#m39098706e5" x="128.88" y="317.952" style="stroke: #000000; stroke-width: 0.8"/>
      </g>
     </g>
     <g id="text_9">
      <!-- 0.2 -->
      <g transform="translate(86.893125 326.310281) scale(0.22 -0.22)">
       <use xlink:href="#DejaVuSerif-30"/>
       <use xlink:href="#DejaVuSerif-2e" transform="translate(63.623047 0)"/>
       <use xlink:href="#DejaVuSerif-32" transform="translate(95.410156 0)"/>
      </g>
     </g>
    </g>
    <g id="ytick_3">
     <g id="line2d_17">
      <path d="M 128.88 251.424 
L 461.52 251.424 
" clip-path="url(#ped9fbcf3a1)" style="fill: none; stroke: #b0b0b0; stroke-width: 0.8; stroke-linecap: square"/>
     </g>
     <g id="line2d_18">
      <g>
       <use xlink:href="#m39098706e5" x="128.88" y="251.424" style="stroke: #000000; stroke-width: 0.8"/>
      </g>
     </g>
     <g id="text_10">
      <!-- 0.4 -->
      <g transform="translate(86.893125 259.782281) scale(0.22 -0.22)">
       <use xlink:href="#DejaVuSerif-30"/>
       <use xlink:href="#DejaVuSerif-2e" transform="translate(63.623047 0)"/>
       <use xlink:href="#DejaVuSerif-34" transform="translate(95.410156 0)"/>
      </g>
     </g>
    </g>
    <g id="ytick_4">
     <g id="line2d_19">
      <path d="M 128.88 184.896 
L 461.52 184.896 
" clip-path="url(#ped9fbcf3a1)" style="fill: none; stroke: #b0b0b0; stroke-width: 0.8; stroke-linecap: square"/>
     </g>
     <g id="line2d_20">
      <g>
       <use xlink:href="#m39098706e5" x="128.88" y="184.896" style="stroke: #000000; stroke-width: 0.8"/>
      </g>
     </g>
     <g id="text_11">
      <!-- 0.6 -->
      <g transform="translate(86.893125 193.254281) scale(0.22 -0.22)">
       <use xlink:href="#DejaVuSerif-30"/>
       <use xlink:href="#DejaVuSerif-2e" transform="translate(63.623047 0)"/>
       <use xlink:href="#DejaVuSerif-36" transform="translate(95.410156 0)"/>
      </g>
     </g>
    </g>
    <g id="ytick_5">
     <g id="line2d_21">
      <path d="M 128.88 118.368 
L 461.52 118.368 
" clip-path="url(#ped9fbcf3a1)" style="fill: none; stroke: #b0b0b0; stroke-width: 0.8; stroke-linecap: square"/>
     </g>
     <g id="line2d_22">
      <g>
       <use xlink:href="#m39098706e5" x="128.88" y="118.368" style="stroke: #000000; stroke-width: 0.8"/>
      </g>
     </g>
     <g id="text_12">
      <!-- 0.8 -->
      <g transform="translate(86.893125 126.726281) scale(0.22 -0.22)">
       <use xlink:href="#DejaVuSerif-30"/>
       <use xlink:href="#DejaVuSerif-2e" transform="translate(63.623047 0)"/>
       <use xlink:href="#DejaVuSerif-38" transform="translate(95.410156 0)"/>
      </g>
     </g>
    </g>
    <g id="ytick_6">
     <g id="line2d_23">
      <path d="M 128.88 51.84 
L 461.52 51.84 
" clip-path="url(#ped9fbcf3a1)" style="fill: none; stroke: #b0b0b0; stroke-width: 0.8; stroke-linecap: square"/>
     </g>
     <g id="line2d_24">
      <g>
       <use xlink:href="#m39098706e5" x="128.88" y="51.84" style="stroke: #000000; stroke-width: 0.8"/>
      </g>
     </g>
     <g id="text_13">
      <!-- 1.0 -->
      <g transform="translate(86.893125 60.198281) scale(0.22 -0.22)">
       <use xlink:href="#DejaVuSerif-31"/>
       <use xlink:href="#DejaVuSerif-2e" transform="translate(63.623047 0)"/>
       <use xlink:href="#DejaVuSerif-30" transform="translate(95.410156 0)"/>
      </g>
     </g>
    </g>
    <g id="text_14">
     <!-- y -->
     <g transform="translate(78.005 224.375) rotate(-90) scale(0.22 -0.22)">
      <defs>
       <path id="DejaVuSerif-79" d="M 1381 -609 
L 1600 -56 
L 359 2988 
L -19 2988 
L -19 3322 
L 1509 3322 
L 1509 2988 
L 978 2988 
L 1913 703 
L 2847 2988 
L 2350 2988 
L 2350 3322 
L 3597 3322 
L 3597 2988 
L 3225 2988 
L 1703 -750 
Q 1547 -1138 1356 -1280 
Q 1166 -1422 819 -1422 
Q 672 -1422 517 -1397 
Q 363 -1372 206 -1325 
L 206 -691 
L 500 -691 
Q 519 -903 608 -995 
Q 697 -1088 884 -1088 
Q 1056 -1088 1161 -992 
Q 1266 -897 1381 -609 
z
" transform="scale(0.015625)"/>
      </defs>
      <use xlink:href="#DejaVuSerif-79"/>
     </g>
    </g>
   </g>
   <g id="line2d_25">
    <path d="M 145.498145 52.394123 
L 153.064949 53.015168 
L 160.606551 53.865983 
L 168.115103 54.945502 
L 175.582808 56.252377 
L 183.001922 57.784975 
L 190.364772 59.54138 
L 197.663759 61.519402 
L 204.891377 63.716571 
L 212.040215 66.13015 
L 219.102973 68.757131 
L 226.072471 71.594247 
L 232.941658 74.63797 
L 239.703619 77.88452 
L 246.351591 81.329871 
L 252.878965 84.969755 
L 259.279302 88.79967 
L 265.546334 92.814883 
L 271.67398 97.010445 
L 277.656348 101.381187 
L 283.487748 105.921739 
L 289.162694 110.626531 
L 294.675917 115.4898 
L 300.022367 120.505607 
L 305.197224 125.667835 
L 310.1959 130.970206 
L 315.014046 136.406286 
L 319.647561 141.969497 
L 324.092592 147.653124 
L 328.345542 153.450326 
L 332.403071 159.354148 
L 336.262106 165.357527 
L 339.919837 171.453307 
L 343.373725 177.634243 
L 346.621505 183.89302 
L 349.661185 190.222255 
L 352.491049 196.614514 
L 355.10966 203.06232 
L 357.51586 209.558161 
L 359.70877 216.094508 
L 361.687792 222.663818 
L 363.452605 229.25855 
L 365.003168 235.871174 
L 366.339718 242.49418 
L 367.462769 249.12009 
L 368.373106 255.741471 
L 369.110875 262.790968 
L 369.609454 269.818033 
L 369.87081 276.813885 
L 369.897249 283.769848 
L 369.69141 290.677372 
L 369.256259 297.528043 
L 368.595084 304.313597 
L 367.711487 311.025931 
L 366.609375 317.657116 
L 365.292953 324.199411 
L 363.766716 330.645272 
L 362.03544 336.987365 
L 360.104171 343.218575 
L 357.978215 349.332018 
L 355.663131 355.321051 
L 353.164714 361.17928 
L 350.488992 366.900571 
L 347.642206 372.479055 
L 344.630806 377.90914 
L 341.461432 383.185517 
L 340.645201 384.48 
L 340.645201 384.48 
" clip-path="url(#ped9fbcf3a1)" style="fill: none; stroke-dasharray: 5.55,2.4; stroke-dashoffset: 0; stroke: #000000; stroke-width: 1.5"/>
   </g>
   <g id="line2d_26">
    <path d="M 128.896632 351.216006 
L 128.899793 348.192007 
L 128.90323 345.168009 
L 128.906941 342.144011 
L 128.910927 339.120014 
L 128.915188 336.096017 
L 128.919724 333.07202 
L 128.924535 330.048024 
L 128.929621 327.024029 
L 128.934982 324.000033 
L 128.940617 320.976039 
L 128.946528 317.952044 
L 128.952713 314.928051 
L 128.959174 311.904058 
L 128.965909 308.880065 
L 128.972919 305.856073 
L 128.980204 302.832082 
L 128.987764 299.808091 
L 128.995599 296.784102 
L 129.003709 293.760112 
L 129.012094 290.736124 
L 129.020753 287.712136 
L 129.029688 284.68815 
L 129.038897 281.664164 
L 129.048382 278.640179 
L 129.058141 275.616194 
L 129.068175 272.592211 
L 129.078484 269.568229 
L 129.089068 266.544247 
L 129.099927 263.520267 
L 129.111061 260.496287 
L 129.12247 257.472309 
L 129.134153 254.448331 
L 129.146112 251.424355 
L 129.158345 248.40038 
L 129.170853 245.376405 
L 129.183637 242.352432 
L 129.196695 239.328461 
L 129.210028 236.30449 
L 129.223636 233.280521 
L 129.237519 230.256553 
L 129.251676 227.232586 
L 129.266109 224.20862 
L 129.280817 221.184656 
L 129.295799 218.160693 
L 129.311057 215.136731 
L 129.326589 212.112771 
L 129.342396 209.088813 
L 129.358478 206.064855 
L 129.374835 203.0409 
L 129.391467 200.016945 
L 129.408374 196.992993 
L 129.425556 193.969042 
L 129.443012 190.945092 
L 129.460744 187.921144 
L 129.47875 184.897198 
L 129.497032 181.873253 
L 129.515588 178.84931 
L 129.534419 175.825368 
L 129.553525 172.801429 
L 129.572906 169.777491 
L 129.592562 166.753555 
L 129.612493 163.72962 
L 129.632698 160.705688 
L 129.653179 157.681757 
L 129.673934 154.657828 
L 129.694965 151.633902 
L 129.71627 148.609977 
L 129.73785 145.586054 
L 129.759705 142.562133 
L 129.781835 139.538214 
L 129.80424 136.514297 
L 129.82692 133.490382 
L 129.849875 130.466469 
L 129.873104 127.442558 
L 129.896609 124.418649 
L 129.920388 121.394743 
L 129.944442 118.370839 
L 129.968772 115.346936 
L 129.993376 112.323036 
L 130.018255 109.299139 
L 130.043408 106.275243 
L 130.068837 103.25135 
L 130.094541 100.22746 
L 130.12052 97.203571 
L 130.146773 94.179685 
L 130.173301 91.155802 
L 130.200105 88.13192 
L 130.227183 85.108042 
L 130.254536 82.084165 
L 130.282164 79.060291 
L 130.310067 76.03642 
L 130.338245 73.012552 
L 130.366697 69.988685 
L 130.395425 66.964822 
L 130.424427 63.940961 
L 130.453705 60.917103 
L 130.483257 57.893247 
L 130.513084 54.869394 
L 130.543186 51.845544 
" clip-path="url(#ped9fbcf3a1)" style="fill: none; stroke: #ff0000; stroke-width: 1.5; stroke-linecap: square"/>
   </g>
   <g id="line2d_27">
    <path d="M 128.880318 383.844705 
L 128.892523 380.491148 
L 128.92243 377.137702 
L 128.970039 373.784461 
L 129.035348 370.431518 
L 129.118356 367.078967 
L 129.21906 363.7269 
L 129.337457 360.375412 
L 129.473544 357.024595 
L 129.627317 353.674543 
L 129.798772 350.32535 
L 129.987905 346.977109 
L 130.194709 343.629912 
L 130.41918 340.283854 
L 130.66131 336.939028 
L 130.921094 333.595526 
L 131.198523 330.253442 
L 131.493591 326.912869 
L 131.806288 323.5739 
L 132.136607 320.236629 
L 132.484538 316.901147 
L 132.850071 313.567549 
L 133.233196 310.235927 
L 133.633903 306.906373 
L 134.05218 303.578981 
L 134.488016 300.253844 
L 134.941398 296.931053 
L 135.412314 293.610703 
L 135.90075 290.292884 
L 136.406694 286.97769 
L 136.930131 283.665212 
L 137.471047 280.355544 
L 138.029425 277.048778 
L 138.605252 273.745005 
L 139.19851 270.444317 
L 139.809184 267.146808 
L 140.437256 263.852568 
L 141.082708 260.561689 
L 141.745524 257.274263 
L 142.425683 253.990382 
L 143.123168 250.710137 
L 143.837959 247.43362 
L 144.570035 244.160921 
L 145.319378 240.892133 
L 146.085965 237.627346 
L 146.869775 234.36665 
L 147.670787 231.110138 
L 148.488978 227.857899 
L 149.324325 224.610025 
L 150.176805 221.366606 
L 151.046395 218.127732 
L 151.933069 214.893493 
L 152.836805 211.66398 
L 153.757575 208.439282 
L 154.695355 205.21949 
L 155.650118 202.004693 
L 156.621838 198.794981 
L 157.610488 195.590443 
L 158.61604 192.391169 
L 159.638466 189.197247 
L 160.677738 186.008767 
L 161.733827 182.825817 
L 162.806703 179.648487 
L 163.896336 176.476864 
L 165.002696 173.311037 
L 166.125753 170.151095 
L 167.265474 166.997125 
L 168.421829 163.849215 
L 169.594784 160.707453 
L 170.784308 157.571927 
L 171.990366 154.442723 
L 173.212927 151.31993 
L 174.451954 148.203634 
L 175.707415 145.093921 
L 176.979273 141.990879 
L 178.267494 138.894595 
L 179.572042 135.805153 
L 180.892879 132.722642 
L 182.229971 129.647145 
L 183.583278 126.578749 
L 184.952763 123.51754 
L 186.338389 120.463603 
L 187.740117 117.417023 
L 189.157907 114.377884 
L 190.591721 111.346272 
L 192.041517 108.322271 
L 193.507257 105.305966 
L 194.988898 102.297439 
L 196.486399 99.296776 
L 197.99972 96.304059 
L 199.528818 93.319373 
L 201.073649 90.3428 
L 202.634172 87.374423 
L 204.210342 84.414325 
L 205.802116 81.462588 
L 207.409449 78.519296 
L 209.032296 75.584529 
L 210.670613 72.658369 
L 212.324354 69.740899 
L 213.993472 66.832198 
" clip-path="url(#ped9fbcf3a1)" style="fill: none; stroke: #008000; stroke-width: 1.5; stroke-linecap: square"/>
   </g>
   <g id="line2d_28">
    <path d="M 128.880159 384.162352 
L 128.901252 380.805643 
L 128.957816 377.449343 
L 129.049844 374.093829 
L 129.177327 370.739475 
L 129.340249 367.386655 
L 129.538593 364.035745 
L 129.772337 360.687117 
L 130.041454 357.341146 
L 130.345914 353.998206 
L 130.685684 350.65867 
L 131.060725 347.322911 
L 131.470995 343.991302 
L 131.91645 340.664214 
L 132.397038 337.342019 
L 132.912707 334.025088 
L 133.463398 330.713792 
L 134.049051 327.4085 
L 134.669599 324.109581 
L 135.324974 320.817405 
L 136.015102 317.532337 
L 136.739907 314.254747 
L 137.499307 310.984998 
L 138.293217 307.723457 
L 139.12155 304.470488 
L 139.984211 301.226453 
L 140.881106 297.991716 
L 141.812133 294.766638 
L 142.77719 291.551578 
L 143.776167 288.346896 
L 144.808954 285.152949 
L 145.875436 281.970095 
L 146.975492 278.798688 
L 148.109001 275.639083 
L 149.275835 272.491633 
L 150.475865 269.35669 
L 151.708956 266.234602 
L 152.974971 263.12572 
L 154.273768 260.030389 
L 155.605202 256.948957 
L 156.969125 253.881766 
L 158.365384 250.82916 
L 159.793824 247.791479 
L 161.254284 244.769063 
L 162.746602 241.762249 
L 164.270611 238.771373 
L 165.826141 235.796768 
L 167.413018 232.838768 
L 169.031065 229.897702 
L 170.680101 226.973899 
L 172.359942 224.067686 
L 174.070401 221.179386 
L 175.811286 218.309323 
L 177.582403 215.457817 
L 179.383555 212.625186 
L 181.214539 209.811747 
L 183.075152 207.017814 
L 184.965187 204.243699 
L 186.884431 201.489711 
L 188.83267 198.756159 
L 190.809687 196.043348 
L 192.815262 193.35158 
L 194.849169 190.681156 
L 196.911183 188.032374 
L 199.001072 185.405531 
L 201.118604 182.800919 
L 203.263542 180.218829 
L 205.435646 177.659551 
L 207.634674 175.123368 
L 209.86038 172.610566 
L 212.112515 170.121423 
L 214.390829 167.65622 
L 216.695066 165.215229 
L 219.02497 162.798725 
L 221.38028 160.406977 
L 223.760734 158.040252 
L 226.166064 155.698815 
L 228.596003 153.382927 
L 231.05028 151.092846 
L 233.52862 148.828829 
L 236.030747 146.591127 
L 238.55638 144.379992 
L 241.105239 142.19567 
L 243.677038 140.038405 
L 246.27149 137.908437 
L 248.888306 135.806005 
L 251.527193 133.731344 
L 254.187856 131.684685 
L 256.869999 129.666257 
L 259.573322 127.676284 
L 262.297523 125.71499 
L 265.042297 123.782594 
L 267.807339 121.87931 
L 270.59234 120.005353 
L 273.396987 118.16093 
L 276.220969 116.346248 
L 279.06397 114.56151 
L 281.925672 112.806915 
L 284.805757 111.082659 
L 287.703901 109.388934 
" clip-path="url(#ped9fbcf3a1)" style="fill: none; stroke: #0000ff; stroke-width: 1.5; stroke-linecap: square"/>
   </g>
   <g id="line2d_29">
    <path d="M 128.880106 384.268235 
L 128.910085 380.910543 
L 128.9933 377.553748 
L 129.129728 374.198695 
L 129.319337 370.846227 
L 129.562079 367.497187 
L 129.857892 364.152417 
L 130.206702 360.812757 
L 130.608421 357.479048 
L 131.062949 354.152128 
L 131.57017 350.832833 
L 132.129958 347.521997 
L 132.742172 344.220454 
L 133.406658 340.929033 
L 134.123249 337.648562 
L 134.891764 334.379865 
L 135.712011 331.123765 
L 136.583782 327.881079 
L 137.50686 324.652624 
L 138.481012 321.439211 
L 139.505993 318.241649 
L 140.581545 315.06074 
L 141.707397 311.897284 
L 142.883268 308.752078 
L 144.108861 305.625912 
L 145.383867 302.519571 
L 146.707967 299.433837 
L 148.080828 296.369486 
L 149.502104 293.327288 
L 150.971438 290.308008 
L 152.488461 287.312405 
L 154.05279 284.341233 
L 155.664034 281.395238 
L 157.321786 278.47516 
L 159.025631 275.581735 
L 160.775139 272.71569 
L 162.56987 269.877745 
L 164.409374 267.068613 
L 166.293188 264.289002 
L 168.220838 261.53961 
L 170.19184 258.821128 
L 172.205698 256.134239 
L 174.261906 253.47962 
L 176.359947 250.857937 
L 178.499293 248.269851 
L 180.679406 245.71601 
L 182.899739 243.197059 
L 185.159732 240.713629 
L 187.458819 238.266346 
L 189.79642 235.855824 
L 192.171948 233.48267 
L 194.584806 231.147481 
L 197.034387 228.850843 
L 199.520076 226.593334 
L 202.041247 224.375521 
L 204.597266 222.197963 
L 207.18749 220.061206 
L 209.81127 217.965788 
L 212.467944 215.912236 
L 215.156845 213.901066 
L 217.877297 211.932783 
L 220.628615 210.007883 
L 223.410109 208.12685 
L 226.221078 206.290156 
L 229.060817 204.498263 
L 231.92861 202.751622 
L 234.823738 201.050672 
L 237.745471 199.395841 
L 240.693076 197.787544 
L 243.665812 196.226186 
L 246.66293 194.71216 
L 249.683678 193.245846 
L 252.727296 191.827613 
L 255.793018 190.457817 
L 258.880074 189.136803 
L 261.987688 187.864904 
L 265.115079 186.642438 
L 268.261459 185.469713 
L 271.426039 184.347024 
L 274.608022 183.274654 
L 277.806608 182.252871 
L 281.020994 181.281933 
L 284.25037 180.362085 
L 287.493926 179.493556 
L 290.750844 178.676566 
L 294.020308 177.91132 
L 297.301494 177.19801 
L 300.593578 176.536816 
L 303.895732 175.927904 
L 307.207126 175.371427 
L 310.526926 174.867524 
L 313.854299 174.416324 
L 317.188408 174.017939 
L 320.528415 173.672469 
L 323.87348 173.380001 
L 327.222761 173.140608 
L 330.575417 172.954352 
L 333.930605 172.821278 
L 337.287481 172.74142 
L 340.645201 172.714799 
" clip-path="url(#ped9fbcf3a1)" style="fill: none; stroke: #00bfbf; stroke-width: 1.5; stroke-linecap: square"/>
   </g>
   <g id="line2d_30">
    <path d="M 128.880079 384.321176 
L 128.918944 380.963068 
L 129.028802 377.606532 
L 129.209606 374.253069 
L 129.461275 370.904179 
L 129.783696 367.561359 
L 130.176725 364.226104 
L 130.640186 360.899904 
L 131.173872 357.584247 
L 131.777544 354.280615 
L 132.450933 350.990486 
L 133.193737 347.715331 
L 134.005625 344.456613 
L 134.886233 341.215791 
L 135.835167 337.994312 
L 136.852004 334.793618 
L 137.936288 331.615138 
L 139.087535 328.460296 
L 140.30523 325.3305 
L 141.588829 322.227151 
L 142.937757 319.151636 
L 144.351412 316.10533 
L 145.829162 313.089595 
L 147.370345 310.105779 
L 148.974274 307.155217 
L 150.640229 304.239228 
L 152.367468 301.359116 
L 154.155217 298.516167 
L 156.002677 295.711655 
L 157.909022 292.946831 
L 159.873401 290.222933 
L 161.894933 287.541178 
L 163.972716 284.902766 
L 166.105821 282.308876 
L 168.293294 279.760668 
L 170.534157 277.259281 
L 172.827407 274.805834 
L 175.17202 272.401423 
L 177.566948 270.047124 
L 180.011119 267.74399 
L 182.50344 265.493049 
L 185.042798 263.295308 
L 187.628057 261.151751 
L 190.258061 259.063335 
L 192.931634 257.030995 
L 195.647581 255.055638 
L 198.404687 253.138148 
L 201.201721 251.279383 
L 204.03743 249.480174 
L 206.910547 247.741324 
L 209.819788 246.063612 
L 212.763852 244.447787 
L 215.741423 242.894573 
L 218.751168 241.404663 
L 221.791744 239.978723 
L 224.861789 238.617392 
L 227.959932 237.321277 
L 231.084787 236.090959 
L 234.234957 234.926988 
L 237.409034 233.829883 
L 240.605598 232.800135 
L 243.82322 231.838206 
L 247.060462 230.944524 
L 250.315876 230.11949 
L 253.588006 229.363472 
L 256.87539 228.676809 
L 260.176558 228.059807 
L 263.490034 227.512742 
L 266.814336 227.035859 
L 270.147978 226.629371 
L 273.48947 226.29346 
L 276.837317 226.028276 
L 280.190022 225.833938 
L 283.546087 225.710532 
L 286.904011 225.658113 
L 290.262293 225.676706 
L 293.619431 225.766302 
L 296.973924 225.92686 
L 300.324272 226.158309 
L 303.668977 226.460546 
L 307.006544 226.833435 
L 310.335481 227.27681 
L 313.654299 227.790472 
L 316.961515 228.374191 
L 320.255648 229.027708 
L 323.535228 229.750729 
L 326.798787 230.542931 
L 330.044866 231.40396 
L 333.272014 232.333431 
L 336.478789 233.330929 
L 339.663755 234.396007 
L 342.825489 235.528189 
L 345.962578 236.72697 
L 349.073619 237.991812 
L 352.157221 239.322151 
L 355.212004 240.717392 
L 358.236605 242.176911 
L 361.229669 243.700055 
L 364.189859 245.286144 
L 367.115851 246.934467 
" clip-path="url(#ped9fbcf3a1)" style="fill: none; stroke: #ffa500; stroke-width: 1.5; stroke-linecap: square"/>
   </g>
   <g id="line2d_31">
    <path d="M 128.880064 384.352941 
L 128.927812 380.994662 
L 129.064307 377.638817 
L 129.289453 374.287754 
L 129.603094 370.943811 
L 130.005009 367.609327 
L 130.494918 364.286631 
L 131.072479 360.978045 
L 131.737288 357.68588 
L 132.48888 354.412437 
L 133.326732 351.160003 
L 134.250256 347.930851 
L 135.258808 344.727237 
L 136.351682 341.551399 
L 137.528117 338.405557 
L 138.787288 335.291909 
L 140.128317 332.21263 
L 141.550267 329.169871 
L 143.052144 326.16576 
L 144.632898 323.202394 
L 146.291426 320.281845 
L 148.026567 317.406153 
L 149.837111 314.577328 
L 151.721791 311.797345 
L 153.679291 309.068149 
L 155.708243 306.391645 
L 157.807229 303.769703 
L 159.974783 301.204157 
L 162.209391 298.696798 
L 164.50949 296.249378 
L 166.873474 293.863607 
L 169.29969 291.541153 
L 171.786445 289.283638 
L 174.331999 287.09264 
L 176.934575 284.96969 
L 179.592353 282.91627 
L 182.303478 280.933816 
L 185.066054 279.023713 
L 187.878151 277.187295 
L 190.737804 275.425846 
L 193.643016 273.740597 
L 196.591756 272.132724 
L 199.581963 270.603352 
L 202.611549 269.153549 
L 205.678397 267.784328 
L 208.780363 266.496646 
L 211.915281 265.291403 
L 215.080959 264.16944 
L 218.275187 263.131542 
L 221.495731 262.178434 
L 224.740342 261.310782 
L 228.006752 260.529191 
L 231.29268 259.834209 
L 234.595829 259.226321 
L 237.913891 258.705952 
L 241.244547 258.273464 
L 244.585472 257.929161 
L 247.934329 257.673283 
L 251.28878 257.506009 
L 254.64648 257.427455 
L 258.005083 257.437677 
L 261.362243 257.536667 
L 264.715613 257.724356 
L 268.062851 258.000613 
L 271.401618 258.365245 
L 274.729581 258.817998 
L 278.044414 259.358554 
L 281.343801 259.986537 
L 284.625438 260.701507 
L 287.88703 261.502965 
L 291.1263 262.39035 
L 294.340983 263.363044 
L 297.528834 264.420365 
L 300.687624 265.561576 
L 303.815148 266.785879 
L 306.909219 268.092418 
L 309.967675 269.480281 
L 312.98838 270.948497 
L 315.969224 272.496042 
L 318.908122 274.121833 
L 321.803022 275.824735 
L 324.651901 277.603557 
L 327.452768 279.457058 
L 330.203666 281.383941 
L 332.902674 283.38286 
L 335.547904 285.452419 
L 338.13751 287.591172 
L 340.669681 289.797624 
L 343.142648 292.070233 
L 345.554683 294.407412 
L 347.904102 296.807528 
L 350.189261 299.268903 
L 352.408565 301.789817 
L 354.560463 304.36851 
L 356.643452 307.003178 
L 358.656075 309.691983 
L 360.596926 312.433044 
L 362.46465 315.224446 
L 364.257941 318.06424 
L 365.975547 320.95044 
" clip-path="url(#ped9fbcf3a1)" style="fill: none; stroke: #bf00bf; stroke-width: 1.5; stroke-linecap: square"/>
   </g>
   <g id="line2d_32">
    <path d="M 128.880053 384.374117 
L 128.936685 381.015805 
L 129.099806 377.660979 
L 129.369254 374.313015 
L 129.744756 370.975281 
L 130.225935 367.651137 
L 130.812306 364.343927 
L 131.50328 361.05698 
L 132.298161 357.793602 
L 133.19615 354.557079 
L 134.196342 351.350666 
L 135.297732 348.17759 
L 136.49921 345.041045 
L 137.799568 341.944186 
L 139.197498 338.890129 
L 140.691593 335.881949 
L 142.280348 332.922671 
L 143.962167 330.015275 
L 145.735355 327.162685 
L 147.598129 324.367771 
L 149.548615 321.633348 
L 151.584849 318.962165 
L 153.704783 316.356911 
L 155.906283 313.820207 
L 158.187135 311.354607 
L 160.545042 308.962591 
L 162.977632 306.646566 
L 165.482458 304.408863 
L 168.056999 302.251733 
L 170.698664 300.177348 
L 173.404795 298.187794 
L 176.172668 296.285074 
L 178.999499 294.471102 
L 181.882443 292.747704 
L 184.818599 291.116614 
L 187.805013 289.579473 
L 190.838678 288.137828 
L 193.916544 286.793129 
L 197.035511 285.546731 
L 200.192442 284.399886 
L 203.384161 283.353749 
L 206.607454 282.409373 
L 209.85908 281.567708 
L 213.135765 280.829602 
L 216.434213 280.195796 
L 219.751104 279.666928 
L 223.083101 279.243531 
L 226.42685 278.926031 
L 229.778988 278.714747 
L 233.136141 278.609892 
L 236.49493 278.611572 
L 239.851976 278.719784 
L 243.203901 278.93442 
L 246.547331 279.255263 
L 249.878903 279.681992 
L 253.195263 280.214176 
L 256.493076 280.85128 
L 259.769021 281.592663 
L 263.019803 282.437579 
L 266.242151 283.385178 
L 269.432822 284.434506 
L 272.588604 285.584507 
L 275.706324 286.834024 
L 278.782843 288.1818 
L 281.815065 289.626478 
L 284.79994 291.166605 
L 287.734464 292.80063 
L 290.615683 294.526911 
L 293.440699 296.343708 
L 296.206668 298.249195 
L 298.910808 300.241454 
L 301.550397 302.31848 
L 304.122779 304.478183 
L 306.625366 306.71839 
L 309.05564 309.036846 
L 311.411154 311.431219 
L 313.689538 313.899099 
L 315.888501 316.438003 
L 318.005828 319.045375 
L 320.03939 321.718593 
L 321.987141 324.454966 
L 323.847119 327.251741 
L 325.617454 330.106102 
L 327.296364 333.015179 
L 328.882159 335.976044 
L 330.373245 338.985717 
L 331.76812 342.04117 
L 333.065381 345.139328 
L 334.263722 348.277073 
L 335.361938 351.451249 
L 336.358923 354.65866 
L 337.253675 357.89608 
L 338.045292 361.160251 
L 338.732979 364.447887 
L 339.316043 367.755682 
L 339.793897 371.080305 
L 340.166061 374.418413 
L 340.432161 377.766645 
L 340.591928 381.121633 
L 340.645201 384.48 
" clip-path="url(#ped9fbcf3a1)" style="fill: none; stroke: #000000; stroke-width: 1.5; stroke-linecap: square"/>
   </g>
   <g id="patch_3">
    <path d="M 128.88 384.48 
L 128.88 51.84 
" style="fill: none; stroke: #000000; stroke-width: 0.8; stroke-linejoin: miter; stroke-linecap: square"/>
   </g>
   <g id="patch_4">
    <path d="M 461.52 384.48 
L 461.52 51.84 
" style="fill: none; stroke: #000000; stroke-width: 0.8; stroke-linejoin: miter; stroke-linecap: square"/>
   </g>
   <g id="patch_5">
    <path d="M 128.88 384.48 
L 461.52 384.48 
" style="fill: none; stroke: #000000; stroke-width: 0.8; stroke-linejoin: miter; stroke-linecap: square"/>
   </g>
   <g id="patch_6">
    <path d="M 128.88 51.84 
L 461.52 51.84 
" style="fill: none; stroke: #000000; stroke-width: 0.8; stroke-linejoin: miter; stroke-linecap: square"/>
   </g>
   <g id="legend_1">
    <g id="patch_7">
     <path d="M 210.06 373.48 
L 446.12 373.48 
Q 450.52 373.48 450.52 369.08 
L 450.52 101.456875 
Q 450.52 97.056875 446.12 97.056875 
L 210.06 97.056875 
Q 205.66 97.056875 205.66 101.456875 
L 205.66 369.08 
Q 205.66 373.48 210.06 373.48 
z
" style="fill: #ffffff; opacity: 0.8; stroke: #cccccc; stroke-linejoin: miter"/>
    </g>
    <g id="line2d_33">
     <path d="M 214.46 121.696875 
L 236.46 121.696875 
L 258.46 121.696875 
" style="fill: none; stroke-dasharray: 5.55,2.4; stroke-dashoffset: 0; stroke: #000000; stroke-width: 1.5"/>
    </g>
    <g id="text_15">
     <!-- $\frac{L (1 - \cos(\theta))}{\theta}, \frac{L \sin(\theta)}{\theta}$ -->
     <g transform="translate(276.06 129.396875) scale(0.22 -0.22)">
      <defs>
       <path id="DejaVuSans-Oblique-4c" d="M 1075 4666 
L 1709 4666 
L 909 525 
L 3181 525 
L 3078 0 
L 172 0 
L 1075 4666 
z
" transform="scale(0.015625)"/>
       <path id="DejaVuSans-28" d="M 1984 4856 
Q 1566 4138 1362 3434 
Q 1159 2731 1159 2009 
Q 1159 1288 1364 580 
Q 1569 -128 1984 -844 
L 1484 -844 
Q 1016 -109 783 600 
Q 550 1309 550 2009 
Q 550 2706 781 3412 
Q 1013 4119 1484 4856 
L 1984 4856 
z
" transform="scale(0.015625)"/>
       <path id="DejaVuSans-31" d="M 794 531 
L 1825 531 
L 1825 4091 
L 703 3866 
L 703 4441 
L 1819 4666 
L 2450 4666 
L 2450 531 
L 3481 531 
L 3481 0 
L 794 0 
L 794 531 
z
" transform="scale(0.015625)"/>
       <path id="DejaVuSans-2212" d="M 678 2272 
L 4684 2272 
L 4684 1741 
L 678 1741 
L 678 2272 
z
" transform="scale(0.015625)"/>
       <path id="DejaVuSans-63" d="M 3122 3366 
L 3122 2828 
Q 2878 2963 2633 3030 
Q 2388 3097 2138 3097 
Q 1578 3097 1268 2742 
Q 959 2388 959 1747 
Q 959 1106 1268 751 
Q 1578 397 2138 397 
Q 2388 397 2633 464 
Q 2878 531 3122 666 
L 3122 134 
Q 2881 22 2623 -34 
Q 2366 -91 2075 -91 
Q 1284 -91 818 406 
Q 353 903 353 1747 
Q 353 2603 823 3093 
Q 1294 3584 2113 3584 
Q 2378 3584 2631 3529 
Q 2884 3475 3122 3366 
z
" transform="scale(0.015625)"/>
       <path id="DejaVuSans-6f" d="M 1959 3097 
Q 1497 3097 1228 2736 
Q 959 2375 959 1747 
Q 959 1119 1226 758 
Q 1494 397 1959 397 
Q 2419 397 2687 759 
Q 2956 1122 2956 1747 
Q 2956 2369 2687 2733 
Q 2419 3097 1959 3097 
z
M 1959 3584 
Q 2709 3584 3137 3096 
Q 3566 2609 3566 1747 
Q 3566 888 3137 398 
Q 2709 -91 1959 -91 
Q 1206 -91 779 398 
Q 353 888 353 1747 
Q 353 2609 779 3096 
Q 1206 3584 1959 3584 
z
" transform="scale(0.015625)"/>
       <path id="DejaVuSans-73" d="M 2834 3397 
L 2834 2853 
Q 2591 2978 2328 3040 
Q 2066 3103 1784 3103 
Q 1356 3103 1142 2972 
Q 928 2841 928 2578 
Q 928 2378 1081 2264 
Q 1234 2150 1697 2047 
L 1894 2003 
Q 2506 1872 2764 1633 
Q 3022 1394 3022 966 
Q 3022 478 2636 193 
Q 2250 -91 1575 -91 
Q 1294 -91 989 -36 
Q 684 19 347 128 
L 347 722 
Q 666 556 975 473 
Q 1284 391 1588 391 
Q 1994 391 2212 530 
Q 2431 669 2431 922 
Q 2431 1156 2273 1281 
Q 2116 1406 1581 1522 
L 1381 1569 
Q 847 1681 609 1914 
Q 372 2147 372 2553 
Q 372 3047 722 3315 
Q 1072 3584 1716 3584 
Q 2034 3584 2315 3537 
Q 2597 3491 2834 3397 
z
" transform="scale(0.015625)"/>
       <path id="DejaVuSans-Oblique-3b8" d="M 2913 2219 
L 925 2219 
Q 791 1284 928 888 
Q 1100 400 1566 400 
Q 2034 400 2391 891 
Q 2703 1322 2913 2219 
z
M 3009 2750 
Q 3094 3638 2984 3950 
Q 2813 4444 2353 4444 
Q 1875 4444 1525 3956 
Q 1250 3563 1034 2750 
L 3009 2750 
z
M 2444 4913 
Q 3194 4913 3494 4250 
Q 3794 3591 3566 2422 
Q 3341 1256 2781 594 
Q 2225 -72 1475 -72 
Q 722 -72 425 594 
Q 128 1256 353 2422 
Q 581 3591 1134 4250 
Q 1691 4913 2444 4913 
z
" transform="scale(0.015625)"/>
       <path id="DejaVuSans-29" d="M 513 4856 
L 1013 4856 
Q 1481 4119 1714 3412 
Q 1947 2706 1947 2009 
Q 1947 1309 1714 600 
Q 1481 -109 1013 -844 
L 513 -844 
Q 928 -128 1133 580 
Q 1338 1288 1338 2009 
Q 1338 2731 1133 3434 
Q 928 4138 513 4856 
z
" transform="scale(0.015625)"/>
       <path id="DejaVuSans-2c" d="M 750 794 
L 1409 794 
L 1409 256 
L 897 -744 
L 494 -744 
L 750 256 
L 750 794 
z
" transform="scale(0.015625)"/>
       <path id="DejaVuSans-69" d="M 603 3500 
L 1178 3500 
L 1178 0 
L 603 0 
L 603 3500 
z
M 603 4863 
L 1178 4863 
L 1178 4134 
L 603 4134 
L 603 4863 
z
" transform="scale(0.015625)"/>
       <path id="DejaVuSans-6e" d="M 3513 2113 
L 3513 0 
L 2938 0 
L 2938 2094 
Q 2938 2591 2744 2837 
Q 2550 3084 2163 3084 
Q 1697 3084 1428 2787 
Q 1159 2491 1159 1978 
L 1159 0 
L 581 0 
L 581 3500 
L 1159 3500 
L 1159 2956 
Q 1366 3272 1645 3428 
Q 1925 3584 2291 3584 
Q 2894 3584 3203 3211 
Q 3513 2838 3513 2113 
z
" transform="scale(0.015625)"/>
      </defs>
      <use xlink:href="#DejaVuSans-Oblique-4c" transform="translate(0 53.264063) scale(0.7)"/>
      <use xlink:href="#DejaVuSans-28" transform="translate(38.999023 53.264063) scale(0.7)"/>
      <use xlink:href="#DejaVuSans-31" transform="translate(66.308594 53.264063) scale(0.7)"/>
      <use xlink:href="#DejaVuSans-2212" transform="translate(124.482422 53.264063) scale(0.7)"/>
      <use xlink:href="#DejaVuSans-63" transform="translate(196.772461 53.264063) scale(0.7)"/>
      <use xlink:href="#DejaVuSans-6f" transform="translate(235.258789 53.264063) scale(0.7)"/>
      <use xlink:href="#DejaVuSans-73" transform="translate(278.085937 53.264063) scale(0.7)"/>
      <use xlink:href="#DejaVuSans-28" transform="translate(314.555664 53.264063) scale(0.7)"/>
      <use xlink:href="#DejaVuSans-Oblique-3b8" transform="translate(341.865234 53.264063) scale(0.7)"/>
      <use xlink:href="#DejaVuSans-29" transform="translate(384.692383 53.264063) scale(0.7)"/>
      <use xlink:href="#DejaVuSans-29" transform="translate(412.001953 53.264063) scale(0.7)"/>
      <use xlink:href="#DejaVuSans-Oblique-3b8" transform="translate(198 -40.953125) scale(0.7)"/>
      <use xlink:href="#DejaVuSans-2c" transform="translate(451.811523 0.235938)"/>
      <use xlink:href="#DejaVuSans-Oblique-4c" transform="translate(503.081055 53.264063) scale(0.7)"/>
      <use xlink:href="#DejaVuSans-73" transform="translate(542.080078 53.264063) scale(0.7)"/>
      <use xlink:href="#DejaVuSans-69" transform="translate(578.549805 53.264063) scale(0.7)"/>
      <use xlink:href="#DejaVuSans-6e" transform="translate(597.998047 53.264063) scale(0.7)"/>
      <use xlink:href="#DejaVuSans-28" transform="translate(642.363281 53.264063) scale(0.7)"/>
      <use xlink:href="#DejaVuSans-Oblique-3b8" transform="translate(669.672852 53.264063) scale(0.7)"/>
      <use xlink:href="#DejaVuSans-29" transform="translate(712.5 53.264063) scale(0.7)"/>
      <use xlink:href="#DejaVuSans-Oblique-3b8" transform="translate(600.081055 -40.953125) scale(0.7)"/>
      <path d="M 0 19.032813 
L 0 25.282813 
L 439.311523 25.282813 
L 439.311523 19.032813 
L 0 19.032813 
z
"/>
      <path d="M 503.081055 19.032813 
L 503.081055 25.282813 
L 739.80957 25.282813 
L 739.80957 19.032813 
L 503.081055 19.032813 
z
"/>
     </g>
    </g>
    <g id="line2d_34">
     <path d="M 214.46 158.653437 
L 236.46 158.653437 
L 258.46 158.653437 
" style="fill: none; stroke: #ff0000; stroke-width: 1.5; stroke-linecap: square"/>
    </g>
    <g id="text_16">
     <!-- θ = 0.01 -->
     <g transform="translate(276.06 166.353437) scale(0.22 -0.22)">
      <defs>
       <path id="DejaVuSerif-3b8" d="M 2853 2600 
Q 2831 3603 2619 4113 
Q 2384 4678 1922 4678 
Q 1463 4678 1225 4113 
Q 1016 3603 994 2600 
L 2853 2600 
z
M 2853 2266 
L 994 2266 
Q 1016 1269 1228 759 
Q 1466 191 1922 191 
Q 2381 191 2619 759 
Q 2831 1269 2853 2266 
z
M 1922 4931 
Q 2650 4931 3089 4248 
Q 3528 3566 3528 2434 
Q 3528 1300 3087 615 
Q 2647 -69 1922 -69 
Q 1200 -69 759 615 
Q 319 1300 319 2434 
Q 319 3566 758 4248 
Q 1197 4931 1922 4931 
z
" transform="scale(0.015625)"/>
       <path id="DejaVuSerif-20" transform="scale(0.015625)"/>
       <path id="DejaVuSerif-3d" d="M 678 2894 
L 4684 2894 
L 4684 2394 
L 678 2394 
L 678 2894 
z
M 678 1619 
L 4684 1619 
L 4684 1119 
L 678 1119 
L 678 1619 
z
" transform="scale(0.015625)"/>
      </defs>
      <use xlink:href="#DejaVuSerif-3b8"/>
      <use xlink:href="#DejaVuSerif-20" transform="translate(60.205078 0)"/>
      <use xlink:href="#DejaVuSerif-3d" transform="translate(91.992188 0)"/>
      <use xlink:href="#DejaVuSerif-20" transform="translate(175.78125 0)"/>
      <use xlink:href="#DejaVuSerif-30" transform="translate(207.568359 0)"/>
      <use xlink:href="#DejaVuSerif-2e" transform="translate(271.191406 0)"/>
      <use xlink:href="#DejaVuSerif-30" transform="translate(302.978516 0)"/>
      <use xlink:href="#DejaVuSerif-31" transform="translate(366.601562 0)"/>
     </g>
    </g>
    <g id="line2d_35">
     <path d="M 214.46 190.945312 
L 236.46 190.945312 
L 258.46 190.945312 
" style="fill: none; stroke: #008000; stroke-width: 1.5; stroke-linecap: square"/>
    </g>
    <g id="text_17">
     <!-- θ = 0.52 -->
     <g transform="translate(276.06 198.645312) scale(0.22 -0.22)">
      <defs>
       <path id="DejaVuSerif-35" d="M 3219 4666 
L 3219 4153 
L 1081 4153 
L 1081 2816 
Q 1244 2928 1461 2984 
Q 1678 3041 1947 3041 
Q 2703 3041 3140 2622 
Q 3578 2203 3578 1478 
Q 3578 738 3136 323 
Q 2694 -91 1894 -91 
Q 1572 -91 1234 -12 
Q 897 66 544 225 
L 544 1131 
L 897 1131 
Q 925 688 1179 453 
Q 1434 219 1894 219 
Q 2388 219 2653 544 
Q 2919 869 2919 1478 
Q 2919 2084 2655 2407 
Q 2391 2731 1894 2731 
Q 1613 2731 1398 2631 
Q 1184 2531 1019 2322 
L 750 2322 
L 750 4666 
L 3219 4666 
z
" transform="scale(0.015625)"/>
      </defs>
      <use xlink:href="#DejaVuSerif-3b8"/>
      <use xlink:href="#DejaVuSerif-20" transform="translate(60.205078 0)"/>
      <use xlink:href="#DejaVuSerif-3d" transform="translate(91.992188 0)"/>
      <use xlink:href="#DejaVuSerif-20" transform="translate(175.78125 0)"/>
      <use xlink:href="#DejaVuSerif-30" transform="translate(207.568359 0)"/>
      <use xlink:href="#DejaVuSerif-2e" transform="translate(271.191406 0)"/>
      <use xlink:href="#DejaVuSerif-35" transform="translate(302.978516 0)"/>
      <use xlink:href="#DejaVuSerif-32" transform="translate(366.601562 0)"/>
     </g>
    </g>
    <g id="line2d_36">
     <path d="M 214.46 223.237188 
L 236.46 223.237188 
L 258.46 223.237188 
" style="fill: none; stroke: #0000ff; stroke-width: 1.5; stroke-linecap: square"/>
    </g>
    <g id="text_18">
     <!-- θ = 1.05 -->
     <g transform="translate(276.06 230.937187) scale(0.22 -0.22)">
      <use xlink:href="#DejaVuSerif-3b8"/>
      <use xlink:href="#DejaVuSerif-20" transform="translate(60.205078 0)"/>
      <use xlink:href="#DejaVuSerif-3d" transform="translate(91.992188 0)"/>
      <use xlink:href="#DejaVuSerif-20" transform="translate(175.78125 0)"/>
      <use xlink:href="#DejaVuSerif-31" transform="translate(207.568359 0)"/>
      <use xlink:href="#DejaVuSerif-2e" transform="translate(271.191406 0)"/>
      <use xlink:href="#DejaVuSerif-30" transform="translate(302.978516 0)"/>
      <use xlink:href="#DejaVuSerif-35" transform="translate(366.601562 0)"/>
     </g>
    </g>
    <g id="line2d_37">
     <path d="M 214.46 255.529063 
L 236.46 255.529063 
L 258.46 255.529063 
" style="fill: none; stroke: #00bfbf; stroke-width: 1.5; stroke-linecap: square"/>
    </g>
    <g id="text_19">
     <!-- θ = 1.57 -->
     <g transform="translate(276.06 263.229062) scale(0.22 -0.22)">
      <defs>
       <path id="DejaVuSerif-37" d="M 3609 4347 
L 1784 0 
L 1319 0 
L 3059 4153 
L 903 4153 
L 903 3578 
L 538 3578 
L 538 4666 
L 3609 4666 
L 3609 4347 
z
" transform="scale(0.015625)"/>
      </defs>
      <use xlink:href="#DejaVuSerif-3b8"/>
      <use xlink:href="#DejaVuSerif-20" transform="translate(60.205078 0)"/>
      <use xlink:href="#DejaVuSerif-3d" transform="translate(91.992188 0)"/>
      <use xlink:href="#DejaVuSerif-20" transform="translate(175.78125 0)"/>
      <use xlink:href="#DejaVuSerif-31" transform="translate(207.568359 0)"/>
      <use xlink:href="#DejaVuSerif-2e" transform="translate(271.191406 0)"/>
      <use xlink:href="#DejaVuSerif-35" transform="translate(302.978516 0)"/>
      <use xlink:href="#DejaVuSerif-37" transform="translate(366.601562 0)"/>
     </g>
    </g>
    <g id="line2d_38">
     <path d="M 214.46 287.820938 
L 236.46 287.820938 
L 258.46 287.820938 
" style="fill: none; stroke: #ffa500; stroke-width: 1.5; stroke-linecap: square"/>
    </g>
    <g id="text_20">
     <!-- θ = 2.09 -->
     <g transform="translate(276.06 295.520938) scale(0.22 -0.22)">
      <defs>
       <path id="DejaVuSerif-39" d="M 2994 2091 
Q 2784 1856 2512 1740 
Q 2241 1625 1900 1625 
Q 1206 1625 804 2044 
Q 403 2463 403 3188 
Q 403 3897 839 4323 
Q 1275 4750 2003 4750 
Q 2794 4750 3217 4161 
Q 3641 3572 3641 2478 
Q 3641 1253 3137 581 
Q 2634 -91 1722 -91 
Q 1475 -91 1203 -44 
Q 931 3 647 97 
L 647 872 
L 997 872 
Q 1038 556 1241 387 
Q 1444 219 1784 219 
Q 2391 219 2687 676 
Q 2984 1134 2994 2091 
z
M 1978 4441 
Q 1534 4441 1298 4117 
Q 1063 3794 1063 3188 
Q 1063 2581 1298 2256 
Q 1534 1931 1978 1931 
Q 2422 1931 2658 2245 
Q 2894 2559 2894 3150 
Q 2894 3772 2656 4106 
Q 2419 4441 1978 4441 
z
" transform="scale(0.015625)"/>
      </defs>
      <use xlink:href="#DejaVuSerif-3b8"/>
      <use xlink:href="#DejaVuSerif-20" transform="translate(60.205078 0)"/>
      <use xlink:href="#DejaVuSerif-3d" transform="translate(91.992188 0)"/>
      <use xlink:href="#DejaVuSerif-20" transform="translate(175.78125 0)"/>
      <use xlink:href="#DejaVuSerif-32" transform="translate(207.568359 0)"/>
      <use xlink:href="#DejaVuSerif-2e" transform="translate(271.191406 0)"/>
      <use xlink:href="#DejaVuSerif-30" transform="translate(302.978516 0)"/>
      <use xlink:href="#DejaVuSerif-39" transform="translate(366.601562 0)"/>
     </g>
    </g>
    <g id="line2d_39">
     <path d="M 214.46 320.112813 
L 236.46 320.112813 
L 258.46 320.112813 
" style="fill: none; stroke: #bf00bf; stroke-width: 1.5; stroke-linecap: square"/>
    </g>
    <g id="text_21">
     <!-- θ = 2.62 -->
     <g transform="translate(276.06 327.812813) scale(0.22 -0.22)">
      <use xlink:href="#DejaVuSerif-3b8"/>
      <use xlink:href="#DejaVuSerif-20" transform="translate(60.205078 0)"/>
      <use xlink:href="#DejaVuSerif-3d" transform="translate(91.992188 0)"/>
      <use xlink:href="#DejaVuSerif-20" transform="translate(175.78125 0)"/>
      <use xlink:href="#DejaVuSerif-32" transform="translate(207.568359 0)"/>
      <use xlink:href="#DejaVuSerif-2e" transform="translate(271.191406 0)"/>
      <use xlink:href="#DejaVuSerif-36" transform="translate(302.978516 0)"/>
      <use xlink:href="#DejaVuSerif-32" transform="translate(366.601562 0)"/>
     </g>
    </g>
    <g id="line2d_40">
     <path d="M 214.46 352.404688 
L 236.46 352.404688 
L 258.46 352.404688 
" style="fill: none; stroke: #000000; stroke-width: 1.5; stroke-linecap: square"/>
    </g>
    <g id="text_22">
     <!-- θ = 3.14 -->
     <g transform="translate(276.06 360.104688) scale(0.22 -0.22)">
      <defs>
       <path id="DejaVuSerif-33" d="M 622 4469 
Q 988 4606 1323 4678 
Q 1659 4750 1953 4750 
Q 2638 4750 3022 4454 
Q 3406 4159 3406 3634 
Q 3406 3213 3140 2930 
Q 2875 2647 2388 2547 
Q 2963 2466 3280 2130 
Q 3597 1794 3597 1259 
Q 3597 606 3158 257 
Q 2719 -91 1894 -91 
Q 1528 -91 1179 -12 
Q 831 66 488 225 
L 488 1131 
L 838 1131 
Q 869 681 1141 450 
Q 1413 219 1906 219 
Q 2384 219 2661 495 
Q 2938 772 2938 1253 
Q 2938 1803 2653 2086 
Q 2369 2369 1819 2369 
L 1522 2369 
L 1522 2688 
L 1678 2688 
Q 2225 2688 2498 2914 
Q 2772 3141 2772 3597 
Q 2772 4006 2547 4223 
Q 2322 4441 1900 4441 
Q 1478 4441 1245 4241 
Q 1013 4041 972 3647 
L 622 3647 
L 622 4469 
z
" transform="scale(0.015625)"/>
      </defs>
      <use xlink:href="#DejaVuSerif-3b8"/>
      <use xlink:href="#DejaVuSerif-20" transform="translate(60.205078 0)"/>
      <use xlink:href="#DejaVuSerif-3d" transform="translate(91.992188 0)"/>
      <use xlink:href="#DejaVuSerif-20" transform="translate(175.78125 0)"/>
      <use xlink:href="#DejaVuSerif-33" transform="translate(207.568359 0)"/>
      <use xlink:href="#DejaVuSerif-2e" transform="translate(271.191406 0)"/>
      <use xlink:href="#DejaVuSerif-31" transform="translate(302.978516 0)"/>
      <use xlink:href="#DejaVuSerif-34" transform="translate(366.601562 0)"/>
     </g>
    </g>
   </g>
  </g>
 </g>
 <defs>
  <clipPath id="ped9fbcf3a1">
   <rect x="128.88" y="51.84" width="332.64" height="332.64"/>
  </clipPath>
 </defs>
</svg>
